<svg xmlns="http://www.w3.org/2000/svg" viewBox="0 0 172 162" width="172" height="162"><title>sentry-glyph-grey</title><path d="M99.12 15.59C94.94 8.35 85.68 5.87 78.44 10.05C76.14 11.38 74.23 13.29 72.91 15.59C71.47 18.08 64.27 30.54 51.33 52.97C54.63 54.86 56.46 55.91 56.83 56.12C87.57 73.9 107.34 105.9 109.49 141.34C107.98 141.34 95.86 141.34 94.34 141.34C92.21 111.28 75.3 84.25 49.2 69.18C48.83 68.97 47 67.92 43.7 66.03L23.59 100.99C26.9 102.89 28.73 103.94 29.1 104.15C42.62 112.09 51.73 125.8 53.83 141.34C50.37 141.34 22.68 141.34 19.22 141.34C17.84 141.36 16.7 140.26 16.68 138.88C16.67 138.43 16.79 137.98 17.02 137.59C17.98 135.92 25.7 122.55 26.66 120.88C23.41 118.14 19.68 116.01 15.65 114.6C14.7 116.26 7.06 129.6 6.11 131.27C1.93 138.51 4.42 147.77 11.66 151.94C13.96 153.27 16.57 153.97 19.22 153.97C22.4 153.97 38.27 153.97 66.84 153.97C66.84 150.18 66.84 148.08 66.84 147.66C66.85 127.42 57.12 108.42 40.7 96.59C41.46 95.27 47.52 84.77 48.28 83.46C69.33 98.03 81.9 122 81.92 147.6C81.92 148.03 81.92 150.13 81.92 153.92L122.27 153.92C122.27 150.14 122.27 148.04 122.27 147.62C122.24 107.61 102.01 70.32 68.5 48.47C70.03 45.82 82.28 24.56 83.82 21.91C84.51 20.71 86.04 20.3 87.23 20.99C87.61 21.21 87.92 21.53 88.14 21.91C94.82 33.47 148.25 126.02 154.93 137.59C155.62 138.78 155.22 140.31 154.02 141C153.63 141.23 153.18 141.35 152.73 141.34C151.16 141.34 138.66 141.34 137.1 141.34C137.3 145.56 137.32 149.77 137.1 153.98C138.67 153.98 151.21 153.98 152.78 153.98C161.14 153.98 167.92 147.2 167.92 138.84C167.92 136.18 167.22 133.58 165.89 131.28C152.54 108.14 112.47 38.73 99.12 15.59Z" style="fill:#B9B2D0"/></svg>
